<?xml version="1.0" encoding="UTF-8"?>
<svg xmlns="http://www.w3.org/2000/svg" id="Layer_1" data-name="Layer 1" viewBox="0 0 24 24" width="512" height="512"><path d="m10,10c0-.552.447-1,1-1h2v-2c0-.552.447-1,1-1s1,.448,1,1v2h2c.553,0,1,.448,1,1s-.447,1-1,1h-2v2c0,.552-.447,1-1,1s-1-.448-1-1v-2h-2c-.553,0-1-.448-1-1Zm12-5v14c0,2.757-2.243,5-5,5H6c-2.206,0-4-1.794-4-4V5C2,2.243,4.243,0,7,0h10c2.757,0,5,2.243,5,5Zm-5-3h-9v14h12V5c0-1.654-1.346-3-3-3Zm-13,3v11.537c.589-.341,1.272-.537,2-.537V2.172c-1.164.413-2,1.524-2,2.828Zm16,14v-1H6c-1.103,0-2,.897-2,2s.897,2,2,2h11c1.654,0,3-1.346,3-3Z"/></svg>
