<?xml version="1.0" encoding="UTF-8"?>
<svg xmlns="http://www.w3.org/2000/svg" id="Layer_1" data-name="Layer 1" viewBox="0 0 24 24" width="512" height="512"><path d="m23.493,11.017c-.487-.654-1.234-1.03-2.05-1.03h-.443v-1.987c0-2.757-2.243-5-5-5h-5.056c-.154,0-.31-.037-.447-.105l-3.155-1.578c-.414-.207-.878-.316-1.342-.316h-2C1.794,1,0,2.794,0,5v13c0,2.757,2.243,5,5,5h12.558c2.226,0,4.15-1.432,4.802-3.607l1.532-6.116c.234-.782.089-1.605-.398-2.26ZM2,18V5c0-1.103.897-2,2-2h2c.154,0,.31.037.447.105l3.155,1.578c.414.207.878.316,1.342.316h5.056c1.654,0,3,1.346,3,3v1.987h-10.385c-1.7,0-3.218,1.079-3.789,2.72l-2.19,7.138c-.398-.509-.636-1.15-.636-1.845Zm19.964-5.253l-1.532,6.115c-.384,1.279-1.539,2.138-2.874,2.138H5c-.208,0-.411-.021-.607-.062l2.334-7.609c.279-.803,1.039-1.342,1.889-1.342h12.828c.242,0,.383.14.445.224.062.084.156.259.075.536Z"/></svg>
