<?xml version="1.0" encoding="UTF-8"?>
<svg xmlns="http://www.w3.org/2000/svg" id="Layer_1" data-name="Layer 1" viewBox="0 0 24 24" width="512" height="512"><path d="M15,6c0-3.309-2.691-6-6-6S3,2.691,3,6s2.691,6,6,6,6-2.691,6-6Zm-6,4c-2.206,0-4-1.794-4-4s1.794-4,4-4,4,1.794,4,4-1.794,4-4,4Zm-.008,4.938c.068,.548-.32,1.047-.869,1.116-3.491,.436-6.124,3.421-6.124,6.946,0,.552-.448,1-1,1s-1-.448-1-1c0-4.531,3.386-8.37,7.876-8.93,.542-.069,1.047,.32,1.116,.869Zm13.704,4.195l-.974-.562c.166-.497,.278-1.019,.278-1.572s-.111-1.075-.278-1.572l.974-.562c.478-.276,.642-.888,.366-1.366-.277-.479-.887-.644-1.366-.366l-.973,.562c-.705-.794-1.644-1.375-2.723-1.594v-1.101c0-.552-.448-1-1-1s-1,.448-1,1v1.101c-1.079,.22-2.018,.801-2.723,1.594l-.973-.562c-.48-.277-1.09-.113-1.366,.366-.276,.479-.112,1.09,.366,1.366l.974,.562c-.166,.497-.278,1.019-.278,1.572s.111,1.075,.278,1.572l-.974,.562c-.478,.276-.642,.888-.366,1.366,.186,.321,.521,.5,.867,.5,.169,0,.341-.043,.499-.134l.973-.562c.705,.794,1.644,1.375,2.723,1.594v1.101c0,.552,.448,1,1,1s1-.448,1-1v-1.101c1.079-.22,2.018-.801,2.723-1.594l.973,.562c.158,.091,.33,.134,.499,.134,.346,0,.682-.179,.867-.5,.276-.479,.112-1.09-.366-1.366Zm-5.696,.866c-1.654,0-3-1.346-3-3s1.346-3,3-3,3,1.346,3,3-1.346,3-3,3Z"/></svg>
